<?xml version="1.0" standalone="no"?>
<!DOCTYPE svg PUBLIC "-//W3C//DTD SVG 20010904//EN"
 "http://www.w3.org/TR/2001/REC-SVG-20010904/DTD/svg10.dtd">
<svg version="1.0" xmlns="http://www.w3.org/2000/svg"
 width="200.000000pt" height="200.000000pt" viewBox="0 0 200.000000 200.000000"
 preserveAspectRatio="xMidYMid meet">
<metadata>
Created by potrace 1.11, written by Peter Selinger 2001-2013
</metadata>
<g transform="translate(0.000000,200.000000) scale(0.100000,-0.100000)"
fill="#000000" stroke="none">
<path d="M823 1891 c-214 -77 -343 -226 -402 -463 -66 -263 -44 -439 70 -563
21 -23 39 -45 39 -48 0 -2 -28 -15 -63 -27 -154 -55 -206 -128 -163 -231 13
-31 13 -41 1 -75 -35 -98 -4 -207 84 -294 99 -99 193 -123 298 -76 l60 27 102
-20 c57 -12 120 -21 140 -21 36 0 182 22 234 35 19 5 43 1 77 -14 63 -27 159
-28 215 -2 93 43 173 144 195 247 9 42 8 60 -9 113 -18 58 -18 66 -4 88 9 13
16 40 17 61 1 60 -32 96 -135 145 -49 23 -89 48 -89 54 0 7 20 40 44 73 66 89
71 112 70 290 -2 181 -18 260 -82 387 -76 151 -186 251 -336 308 -58 22 -82
25 -189 25 -93 -1 -134 -5 -174 -19z m-152 -432 c16 -31 -4 -71 -33 -67 -31 5
-44 31 -30 62 14 32 47 34 63 5z m718 -1 c11 -31 -2 -62 -27 -66 -26 -4 -46
30 -38 64 9 33 53 34 65 2z m-257 -801 c55 -23 123 -91 147 -148 l22 -50 -28
-57 c-23 -46 -28 -72 -30 -137 l-2 -79 -36 -13 c-72 -25 -200 -36 -288 -24
-45 6 -98 16 -117 21 l-36 10 0 73 c0 63 -4 83 -31 138 l-32 64 23 50 c31 69
65 106 126 139 83 45 192 50 282 13z m-352 -31 c0 -2 -8 -10 -17 -17 -16 -13
-17 -12 -4 4 13 16 21 21 21 13z m-379 -373 c13 -16 12 -17 -3 -4 -17 13 -22
21 -14 21 2 0 10 -8 17 -17z m1219 13 c0 -2 -8 -10 -17 -17 -16 -13 -17 -12
-4 4 13 16 21 21 21 13z m-1189 -53 c13 -16 12 -17 -3 -4 -10 7 -18 15 -18 17
0 8 8 3 21 -13z m1159 14 c0 -2 -10 -12 -22 -23 l-23 -19 19 23 c18 21 26 27
26 19z m-275 -47 l20 -25 -22 19 c-13 11 -23 24 -23 29 0 6 1 8 3 6 1 -2 11
-15 22 -29z m-615 -4 c0 -3 -4 -8 -10 -11 -5 -3 -10 -1 -10 4 0 6 5 11 10 11
6 0 10 -2 10 -4z"/>
</g>
</svg>
