<?xml version="1.0" standalone="no"?>
<!DOCTYPE svg PUBLIC "-//W3C//DTD SVG 20010904//EN"
 "http://www.w3.org/TR/2001/REC-SVG-20010904/DTD/svg10.dtd">
<svg version="1.0" xmlns="http://www.w3.org/2000/svg"
 width="492.000000pt" height="492.000000pt" viewBox="0 0 492.000000 492.000000"
 preserveAspectRatio="xMidYMid meet">
<metadata>
Created by potrace 1.11, written by Peter Selinger 2001-2013
</metadata>
<g transform="translate(0.000000,492.000000) scale(0.100000,-0.100000)"
fill="#000000" stroke="none">
<path d="M2163 4657 c1 -5 -4 -12 -12 -15 -9 -3 -11 0 -6 8 4 7 -4 4 -18 -5
-15 -9 -31 -14 -37 -10 -5 3 -10 1 -10 -5 0 -6 -4 -8 -10 -5 -5 3 -15 3 -22
-1 -16 -10 -68 -11 -68 -1 0 5 -5 5 -11 2 -6 -4 -33 -8 -60 -9 -28 -1 -53 -7
-57 -13 -5 -7 -13 -9 -21 -3 -9 5 -20 2 -30 -9 -11 -12 -13 -12 -7 -1 5 8 -3
3 -18 -12 -15 -16 -31 -28 -37 -28 -6 0 -8 -3 -6 -8 3 -4 -13 -8 -35 -8 -22
-1 -43 -5 -47 -10 -3 -5 -10 -10 -16 -10 -5 -1 -21 -5 -34 -9 -18 -5 -22 -4
-16 6 3 8 -2 4 -12 -7 -15 -16 -24 -19 -36 -12 -13 7 -19 5 -23 -6 -3 -9 -17
-16 -29 -16 -13 0 -27 -5 -30 -11 -4 -6 -13 -8 -21 -5 -8 3 -14 1 -14 -5 0 -6
-4 -7 -10 -4 -5 3 -10 1 -10 -5 0 -7 -7 -9 -16 -6 -10 4 -13 2 -8 -6 5 -8 2
-9 -9 -5 -11 4 -17 1 -17 -8 0 -9 -9 -15 -22 -15 -12 0 -18 -3 -14 -7 3 -4 -8
-12 -26 -18 -24 -8 -32 -16 -30 -30 2 -12 -1 -16 -5 -10 -12 16 -68 1 -58 -15
3 -4 -2 -11 -11 -14 -8 -3 -13 -2 -10 2 2 4 -4 8 -14 8 -13 0 -16 -4 -9 -12 7
-8 5 -11 -8 -10 -10 0 -22 6 -26 11 -5 6 -7 3 -3 -7 9 -29 -3 -51 -20 -37 -12
9 -12 15 -2 28 12 14 11 14 -4 2 -10 -7 -15 -18 -12 -23 4 -6 -3 -5 -16 2 -20
11 -21 10 -10 -10 8 -15 8 -20 1 -16 -6 4 -11 3 -11 -3 0 -5 -12 -11 -27 -13
-17 -2 -32 -12 -39 -26 -8 -17 -13 -20 -17 -10 -3 7 -6 4 -6 -9 -1 -12 -6 -25
-13 -29 -7 -5 -9 -2 -4 7 4 8 1 5 -8 -5 -8 -10 -12 -24 -9 -30 4 -6 0 -5 -9 1
-21 18 -54 -16 -35 -37 6 -7 8 -11 2 -9 -5 3 -23 -9 -40 -25 -16 -16 -25 -26
-18 -23 6 4 15 2 19 -5 4 -7 4 -10 -1 -6 -10 9 -47 -10 -40 -21 3 -5 -2 -12
-11 -15 -10 -4 -14 -12 -10 -22 5 -12 2 -15 -9 -10 -9 3 -13 2 -10 -4 3 -6 1
-10 -5 -10 -6 0 -9 -4 -6 -9 3 -5 -1 -21 -9 -37 -7 -15 -11 -32 -8 -38 4 -6 0
-5 -9 2 -14 11 -16 2 -16 -98 0 -87 3 -110 14 -110 13 0 18 -12 15 -32 0 -5 6
-8 15 -8 14 0 14 -3 4 -15 -11 -13 -10 -14 4 -9 11 4 16 1 16 -12 0 -16 2 -17
11 -4 8 12 9 8 5 -15 -3 -16 -3 -24 0 -17 3 6 12 12 20 12 9 0 12 -4 9 -10 -3
-6 4 -10 16 -10 13 0 34 -10 48 -22 19 -17 21 -18 11 -4 -14 18 -14 19 8 7 12
-6 22 -9 22 -6 0 4 7 0 15 -8 8 -9 24 -13 35 -10 11 3 20 1 20 -4 0 -5 11 -9
25 -9 14 0 25 4 25 9 0 4 6 5 13 0 6 -4 23 -8 37 -9 39 -1 59 -14 53 -31 -4
-11 -2 -14 5 -9 8 5 10 2 6 -8 -3 -9 -1 -16 5 -16 9 0 9 -6 0 -22 -9 -19 -9
-21 2 -10 7 6 18 12 24 12 5 0 3 -5 -5 -10 -13 -9 -12 -12 4 -25 13 -10 15
-15 6 -15 -8 0 -5 -7 8 -18 19 -17 19 -19 4 -30 -15 -10 -15 -11 2 -5 16 5 18
3 13 -11 -4 -9 -3 -15 1 -12 4 3 14 -4 21 -16 7 -11 8 -17 2 -14 -7 4 -8 1 -5
-8 3 -9 11 -16 18 -16 6 0 4 -5 -4 -10 -11 -7 -11 -10 -2 -10 7 0 12 -8 10
-17 -2 -11 2 -17 10 -15 10 2 10 -2 2 -19 -10 -17 -8 -21 9 -26 11 -3 18 -9
15 -14 -3 -5 -2 -9 3 -9 4 0 13 -11 20 -25 6 -14 7 -23 3 -20 -4 3 -3 -6 3
-20 7 -14 16 -25 20 -25 5 0 6 -4 2 -9 -3 -5 2 -16 10 -24 8 -9 17 -26 19 -39
3 -13 5 -25 6 -28 3 -8 7 -24 8 -37 1 -7 9 -13 17 -13 8 0 15 -5 15 -11 0 -5
-4 -7 -10 -4 -6 3 -7 -1 -4 -9 3 -9 12 -16 20 -16 8 0 11 -6 7 -15 -3 -9 3
-25 13 -37 11 -12 13 -18 7 -14 -7 4 -13 2 -13 -3 0 -6 5 -11 11 -11 6 0 8 -7
5 -16 -3 -8 -2 -12 4 -9 6 3 10 3 11 -2 2 -28 9 -45 23 -59 21 -21 20 -30 -1
-13 -14 11 -13 8 2 -11 11 -14 25 -28 30 -32 6 -5 4 -8 -5 -8 -12 0 -13 -2 -1
-9 8 -5 10 -14 6 -21 -5 -8 -4 -11 2 -7 14 9 28 -12 28 -38 0 -11 3 -23 8 -26
5 -4 10 -18 10 -33 2 -24 3 -25 16 -9 13 17 13 17 7 -1 -3 -10 -1 -25 5 -32 6
-8 9 -20 6 -29 -4 -8 -2 -17 3 -20 6 -3 15 -15 21 -27 9 -16 8 -19 -2 -12 -7
4 -1 -8 13 -27 21 -27 24 -38 16 -53 -7 -12 -7 -17 0 -12 10 6 27 -21 23 -38
-1 -5 3 -22 8 -39 10 -27 9 -28 -7 -16 -9 7 -6 1 7 -13 12 -15 20 -31 17 -36
-3 -6 0 -12 8 -15 15 -6 16 -23 3 -44 -5 -8 -3 -13 6 -13 11 0 13 -7 9 -22 -4
-16 -2 -19 9 -13 11 6 11 5 2 -5 -9 -9 -7 -22 7 -55 11 -25 15 -47 10 -56 -5
-7 -5 -18 1 -25 7 -8 6 -14 -1 -19 -7 -4 -7 -12 0 -26 8 -13 7 -19 0 -19 -7 0
-10 -5 -8 -12 3 -7 -2 -20 -11 -30 -18 -21 -24 -51 -8 -41 7 4 5 -1 -3 -12 -8
-10 -14 -26 -12 -37 3 -16 -8 -23 -32 -19 -5 1 -4 -5 4 -13 9 -12 9 -16 1 -16
-7 0 -10 -4 -7 -9 3 -5 -1 -11 -9 -15 -8 -3 -15 -10 -15 -16 0 -6 6 -8 13 -4
6 4 4 -2 -5 -13 -10 -11 -18 -29 -18 -41 0 -12 -5 -22 -12 -22 -6 0 -8 -3 -5
-7 4 -3 1 -13 -6 -21 -9 -13 -9 -14 1 -8 6 4 12 2 12 -3 0 -11 -15 -15 -34
-12 -5 1 -4 -5 4 -13 9 -12 9 -16 1 -16 -7 0 -10 -4 -6 -9 3 -5 -2 -16 -10
-24 -17 -18 -20 -31 -5 -22 5 3 10 3 10 0 0 -10 -27 -35 -32 -30 -3 3 -4 -5
-3 -18 2 -12 -7 -30 -19 -40 -11 -10 -16 -16 -9 -13 6 4 14 2 18 -4 3 -5 1
-10 -5 -10 -6 0 -9 -4 -6 -9 3 -5 -1 -12 -10 -15 -13 -5 -14 -9 -4 -21 9 -10
9 -15 1 -15 -6 0 -10 -6 -8 -12 1 -7 -4 -12 -11 -10 -8 1 -11 -2 -8 -7 4 -5 2
-12 -4 -16 -5 -3 -10 -11 -10 -17 0 -6 5 -7 13 -2 7 5 4 1 -6 -8 -12 -11 -14
-18 -6 -18 21 0 1 -13 -26 -15 -14 -2 -23 0 -20 5 3 4 -3 11 -13 15 -16 7 -15
8 3 15 19 7 19 7 -3 14 -14 5 -22 14 -20 24 2 10 -6 22 -17 27 -11 6 -20 20
-19 32 1 12 -1 22 -5 21 -19 -2 -31 3 -27 11 4 5 1 11 -4 13 -6 2 -12 13 -12
25 -2 14 -7 19 -17 15 -9 -3 -12 -1 -7 6 4 7 3 12 -3 12 -5 0 -12 -6 -15 -12
-3 -7 -3 -3 0 9 5 22 4 23 -54 24 -17 0 -22 4 -18 16 5 13 4 14 -9 3 -8 -7
-15 -11 -16 -9 0 2 -2 13 -4 24 -2 11 -9 21 -15 23 -5 2 -7 9 -3 15 4 6 0 8
-10 4 -9 -3 -18 -3 -21 1 -3 5 -28 7 -55 6 -35 -2 -49 1 -45 8 4 6 3 9 -2 6
-15 -9 -56 11 -48 23 4 8 3 9 -4 5 -7 -4 -12 -2 -12 4 0 6 -5 8 -10 5 -9 -6
-12 -2 -14 28 -1 6 -5 15 -11 19 -6 5 -5 8 3 8 10 0 10 5 2 20 -8 14 -8 20 0
20 6 0 8 5 5 10 -3 6 -1 10 5 10 8 0 8 6 0 20 -6 11 -7 20 -3 19 23 -4 32 2
26 18 -4 11 -3 14 5 9 7 -4 12 -2 12 5 0 7 10 23 22 36 l21 23 -39 0 c-22 0
-45 -5 -52 -12 -7 -7 -12 -8 -12 -3 0 5 -7 0 -16 -11 -8 -10 -13 -13 -9 -6 10
20 -13 13 -28 -9 -14 -20 -16 -20 -26 -2 -10 17 -10 17 -11 0 0 -12 -4 -16
-12 -11 -8 5 -7 0 2 -11 10 -13 11 -16 2 -11 -8 5 -19 1 -28 -10 -9 -11 -12
-12 -8 -4 7 13 6 13 -10 1 -13 -11 -14 -16 -4 -22 10 -7 9 -9 -4 -9 -10 0 -18
-4 -18 -10 0 -5 -5 -10 -11 -10 -5 0 -7 5 -3 12 4 7 3 8 -5 4 -9 -6 -9 -11 1
-24 7 -9 9 -14 3 -11 -5 2 -26 -11 -45 -30 -19 -19 -28 -31 -20 -27 9 4 8 2
-2 -7 -21 -16 -24 -31 -5 -22 6 4 3 -1 -8 -10 -11 -9 -19 -23 -17 -31 2 -8 -2
-14 -8 -14 -7 0 -8 -6 0 -19 7 -13 7 -22 0 -26 -7 -4 -7 -13 0 -26 8 -13 7
-19 0 -19 -6 0 -4 -7 4 -16 18 -18 20 -30 6 -39 -5 -3 -6 -13 -3 -22 4 -11 3
-14 -5 -9 -7 4 -12 1 -12 -9 0 -8 -7 -18 -16 -22 -13 -5 -13 -7 -2 -14 10 -7
8 -10 -9 -15 -18 -5 -21 -10 -13 -25 9 -15 8 -17 -7 -12 -10 3 -15 3 -11 -2 4
-4 3 -14 -3 -21 -14 -17 -18 -74 -5 -74 6 0 6 -4 -1 -11 -11 -11 14 -79 30
-79 4 0 5 5 1 12 -4 7 -3 8 4 4 6 -4 9 -13 5 -21 -4 -13 7 -20 29 -16 4 0 4
-9 2 -22 -3 -12 -6 -28 -6 -34 -1 -7 -6 -13 -11 -13 -5 0 -5 -6 2 -13 7 -10 7
-17 0 -24 -6 -6 -7 -13 -2 -16 5 -3 6 -35 3 -71 -4 -48 -2 -66 7 -66 6 0 15
-5 19 -12 4 -7 3 -8 -4 -4 -7 4 -12 2 -12 -3 0 -6 5 -11 11 -11 6 0 8 -7 5
-16 -3 -8 -2 -13 3 -10 12 8 44 -31 36 -43 -4 -7 0 -8 11 -4 13 5 16 2 12 -9
-8 -20 10 -38 30 -31 10 4 13 2 8 -5 -4 -7 -2 -12 4 -12 6 0 9 -4 6 -9 -3 -5
2 -15 11 -22 12 -10 14 -10 9 -1 -4 6 -2 12 3 12 6 0 11 -5 11 -11 0 -5 4 -8
9 -4 5 3 16 -2 24 -10 12 -11 17 -12 20 -2 3 7 6 6 6 -5 1 -11 9 -15 26 -13
14 1 28 -2 31 -6 3 -5 58 -9 122 -8 181 1 184 1 176 -13 -5 -9 -2 -9 9 1 12 9
17 10 17 2 0 -7 4 -10 9 -7 5 3 14 -1 21 -9 10 -12 16 -13 26 -4 13 11 18 3
16 -22 -1 -3 5 -6 13 -6 8 0 12 5 9 11 -3 6 3 1 13 -12 15 -18 21 -20 32 -10
11 11 13 11 6 0 -4 -8 -2 -13 6 -11 31 4 50 -1 43 -12 -4 -7 1 -7 16 1 18 10
21 9 15 -1 -6 -9 -3 -11 8 -6 10 4 17 1 17 -6 0 -9 2 -9 8 0 5 8 13 9 22 3 9
-5 19 -5 28 2 10 9 12 8 10 -3 -2 -9 8 -15 30 -17 17 -2 32 -9 32 -15 0 -7 4
-6 10 3 7 12 10 12 10 1 0 -7 6 -11 15 -7 8 3 15 1 15 -5 0 -6 4 -7 10 -4 5 3
111 6 235 6 155 0 225 3 225 11 0 7 5 6 15 -2 12 -10 16 -9 21 3 3 9 13 13 25
10 10 -3 27 1 36 8 12 10 14 10 9 1 -4 -6 -2 -12 3 -12 6 0 11 5 11 10 0 6 20
10 44 10 25 0 48 5 51 10 5 8 12 7 23 -2 12 -10 14 -10 8 0 -5 9 6 12 44 12
32 0 49 4 45 10 -8 13 18 8 27 -5 5 -6 8 -4 8 5 0 12 9 15 40 12 27 -3 40 0
40 8 0 10 3 10 14 1 10 -8 16 -9 21 -1 3 5 19 10 35 10 16 0 32 5 35 10 5 8
11 7 21 -1 11 -9 15 -8 19 3 4 9 18 14 36 13 20 -1 33 4 40 16 5 11 16 16 24
13 8 -4 15 -2 15 2 0 12 93 11 102 -1 5 -7 8 -7 8 0 0 6 25 10 55 10 30 0 55
-4 55 -10 0 -7 3 -7 8 0 4 6 30 10 57 10 28 0 53 -4 57 -10 5 -6 8 -6 8 2 0 6
9 9 22 5 15 -4 19 -2 13 7 -6 10 -3 10 16 0 22 -11 23 -11 10 5 -12 14 -12 16
2 11 8 -4 18 -1 22 5 6 9 10 9 16 -1 7 -11 9 -10 9 4 0 9 5 17 11 17 5 0 7 5
4 10 -6 9 10 14 45 11 10 0 11 1 3 5 -19 8 -16 25 4 22 10 -2 18 2 18 9 0 6 4
15 9 20 5 4 6 3 2 -4 -3 -6 -2 -14 4 -18 9 -6 15 16 11 39 -1 5 6 3 15 -5 16
-12 17 -12 11 3 -3 10 -1 20 5 24 7 4 8 3 4 -4 -4 -7 -2 -12 3 -12 15 0 14 27
-1 34 -7 3 -2 3 11 0 15 -4 21 -2 17 4 -3 6 -2 13 4 17 6 4 8 11 5 16 -4 5 0
9 7 9 8 0 9 3 3 8 -5 4 -11 13 -13 21 -3 12 -1 12 15 1 10 -8 15 -10 11 -6 -4
5 0 15 10 23 9 8 12 12 6 9 -7 -3 -11 9 -10 34 1 22 5 40 9 40 4 0 4 8 -1 18
-5 9 -6 26 -2 37 4 11 4 30 -1 43 -6 15 -5 22 4 22 8 0 8 3 -2 9 -7 5 -11 13
-7 19 3 6 0 13 -6 15 -10 4 -10 6 0 6 10 1 9 5 -3 17 -13 14 -14 19 -3 25 11
7 11 9 0 9 -7 0 -10 5 -6 11 3 6 0 15 -7 20 -11 7 -11 9 -1 9 7 0 10 5 7 10
-4 6 -12 7 -18 4 -7 -4 -9 -4 -5 1 4 4 1 23 -7 42 -8 19 -10 31 -4 27 7 -4 7
1 0 15 -7 12 -9 27 -5 33 5 7 3 8 -6 3 -10 -6 -12 -4 -7 8 4 11 1 17 -8 17
-18 0 -20 16 -4 26 8 4 7 9 -2 15 -8 4 -14 14 -15 21 -3 34 -5 39 -13 33 -6
-3 -6 6 -1 25 9 31 0 46 -22 35 -7 -4 -5 0 5 8 15 13 15 15 2 20 -8 4 -12 13
-9 22 3 8 2 15 -4 15 -6 0 -8 9 -5 20 3 11 0 20 -6 20 -6 0 -11 7 -11 16 0 9
-5 12 -12 8 -10 -5 -10 -4 -1 6 10 11 9 16 -5 27 -9 8 -11 12 -4 8 6 -3 12 -1
12 4 0 6 -8 11 -18 11 -15 0 -18 6 -14 30 3 19 0 30 -7 30 -7 0 -9 5 -6 10 4
6 -7 34 -24 64 -17 29 -31 62 -31 72 0 34 -29 66 -53 59 -14 -4 -17 -3 -10 2
13 9 12 58 -2 71 -4 4 -5 1 0 -7 5 -9 4 -12 -3 -7 -6 4 -9 13 -6 20 3 7 -2 16
-10 19 -9 4 -12 13 -9 28 5 17 3 20 -7 14 -10 -6 -12 -3 -8 13 4 14 2 20 -5
15 -6 -4 -8 0 -4 9 3 9 3 19 -1 22 -10 10 -11 36 -1 36 5 0 4 11 -1 26 -6 14
-7 23 -2 21 4 -3 7 17 7 43 -1 29 3 46 9 43 5 -4 7 1 3 10 -3 9 -2 19 3 22 4
3 7 16 5 30 -1 14 2 28 8 32 6 4 7 1 2 -7 -5 -9 -4 -11 4 -6 9 6 8 13 -3 31
-12 18 -12 25 -3 28 9 4 9 6 -1 6 -7 1 -10 5 -7 11 3 6 1 10 -6 10 -7 0 -5 9
6 26 12 18 13 24 4 19 -8 -3 -5 1 5 9 11 9 15 16 10 16 -14 0 -10 50 5 60 11
6 11 9 0 13 -11 4 -11 6 -1 6 7 1 10 5 7 11 -3 5 -1 18 4 28 7 13 7 22 -1 30
-8 8 -8 12 -1 12 7 0 8 14 3 40 -4 22 -3 40 2 40 5 0 4 9 -2 20 -6 11 -7 20
-2 20 5 0 6 18 2 40 -4 22 -4 40 1 40 4 0 4 13 -1 29 -4 16 -6 32 -3 35 3 3 0
12 -7 21 -7 8 -9 15 -5 15 4 0 2 7 -5 15 -9 11 -9 15 -1 15 7 0 9 5 6 10 -3 6
-2 10 4 10 6 0 8 7 5 15 -4 9 0 15 7 15 12 0 12 2 0 9 -8 5 -11 16 -8 24 3 9
-1 21 -9 28 -9 7 -11 16 -5 23 9 12 -21 69 -32 61 -4 -3 -3 0 3 7 7 8 5 17 -4
27 -8 9 -16 25 -18 36 -2 11 -11 20 -19 19 -8 -1 -23 12 -33 29 -11 20 -12 27
-3 21 7 -5 4 -1 -6 8 -11 10 -23 16 -27 13 -4 -3 -7 3 -6 13 0 10 -5 16 -13
14 -12 -3 -12 -1 0 14 9 12 9 15 2 10 -7 -4 -13 -2 -13 3 0 6 -5 11 -11 11 -5
0 -7 -4 -4 -10 10 -16 -1 -11 -16 7 -11 14 -11 15 -1 9 10 -6 13 -3 10 9 -1
10 -10 20 -18 22 -13 4 -13 3 0 -6 11 -8 12 -11 2 -11 -8 0 -16 9 -19 20 -3
11 -9 20 -12 20 -14 0 -4 41 14 58 13 12 15 13 9 2 -7 -13 -5 -13 9 -2 9 8 20
11 25 9 4 -3 14 -2 22 4 11 6 12 9 2 9 -7 0 -10 5 -7 11 4 6 13 8 21 5 8 -3
14 -1 14 5 0 6 10 9 22 7 13 -2 23 3 24 10 3 23 4 24 18 13 11 -10 16 -8 21 8
4 13 13 18 25 16 11 -2 23 1 26 7 5 7 2 8 -7 3 -8 -5 -11 -4 -6 0 16 19 75 33
88 21 9 -8 11 -7 7 4 -4 10 1 17 11 18 9 1 25 3 36 4 11 2 23 8 27 13 4 6 15
11 25 12 10 1 27 4 38 7 11 2 24 5 28 5 5 1 6 5 3 10 -3 5 21 8 54 7 41 -1 61
3 65 12 3 7 10 10 15 7 6 -4 17 -1 25 5 8 7 15 8 15 3 0 -5 9 -9 20 -9 11 0
20 4 20 9 0 6 5 5 13 0 14 -11 57 -11 75 0 7 5 12 4 12 -2 0 -13 22 -10 32 4
5 6 8 6 8 -1 0 -12 54 -13 66 -1 12 12 26 8 19 -5 -4 -7 0 -5 8 5 13 15 19 17
37 7 12 -6 28 -9 36 -6 8 3 14 2 14 -3 0 -5 15 -7 34 -6 24 3 36 -1 40 -12 5
-11 10 -12 19 -4 10 8 19 6 35 -10 12 -11 22 -16 22 -12 0 4 5 0 11 -9 5 -10
19 -23 31 -29 15 -8 19 -8 14 0 -4 6 -2 11 3 11 6 0 11 -4 11 -8 0 -4 20 -14
45 -21 29 -8 42 -17 38 -25 -4 -6 2 -4 12 4 17 14 18 13 12 -4 -5 -13 -3 -17
7 -13 7 3 18 1 23 -4 5 -5 21 -10 35 -11 19 -2 25 -7 23 -20 -3 -11 1 -15 11
-11 7 3 11 10 8 17 -3 6 1 3 10 -8 8 -10 20 -15 26 -11 6 3 9 1 8 -5 -4 -13
56 -36 93 -35 15 1 25 -4 23 -10 -3 -6 4 -11 15 -11 11 0 17 4 15 8 -3 4 0 8
5 8 6 0 11 -5 11 -11 0 -6 7 -3 16 6 10 9 25 14 35 12 20 -5 26 8 9 18 -8 5
-8 11 0 20 7 9 6 16 -6 26 -10 8 -19 12 -21 11 -3 -2 -8 0 -11 4 -4 4 -1 4 6
0 6 -4 12 -2 12 3 0 6 -5 11 -11 11 -5 0 -7 6 -3 13 6 9 5 9 -7 0 -13 -10 -16
-10 -17 2 -1 8 -3 22 -4 30 -1 10 -8 13 -20 9 -17 -5 -23 5 -19 29 1 5 -3 6
-9 2 -5 -3 -10 -2 -10 3 0 6 -7 13 -16 16 -10 4 -13 2 -8 -6 5 -7 3 -8 -5 -4
-7 5 -10 15 -6 24 3 9 3 13 -1 9 -4 -4 -14 -1 -22 6 -13 9 -14 9 -8 0 4 -7 4
-13 1 -13 -3 0 -11 14 -16 30 -6 17 -18 30 -26 30 -21 0 -54 40 -46 54 4 6 -1
5 -10 -3 -15 -12 -17 -12 -11 4 6 14 4 16 -6 10 -10 -6 -12 -4 -6 11 4 10 4
15 0 12 -8 -8 -34 16 -34 32 0 6 -4 8 -10 5 -5 -3 -10 -1 -10 5 0 7 -7 9 -16
6 -15 -6 -15 -4 -3 11 8 9 9 14 2 10 -6 -4 -14 -3 -18 3 -4 6 -12 7 -18 3 -8
-5 -8 -2 0 9 13 15 8 28 -11 28 -6 0 -4 -5 4 -10 9 -6 10 -10 3 -10 -7 0 -17
10 -24 21 -9 17 -8 20 2 13 7 -4 3 6 -9 23 -12 17 -18 34 -14 38 4 5 -1 5 -11
2 -10 -4 -16 -3 -12 3 3 5 0 18 -7 29 -9 15 -15 17 -25 9 -11 -8 -12 -7 -7 7
5 13 4 16 -4 11 -8 -4 -12 0 -12 11 0 15 -2 16 -10 3 -7 -11 -10 -11 -10 -2 0
7 -4 10 -10 7 -5 -3 -10 2 -11 12 0 10 -3 13 -6 6 -6 -15 -33 8 -34 29 0 7 -4
4 -9 -7 -8 -18 -9 -19 -9 -1 -1 13 -6 16 -18 12 -10 -4 -14 -4 -10 0 4 4 -1
13 -11 21 -11 9 -11 12 -2 7 12 -6 13 -5 2 7 -13 14 -17 15 -48 18 -9 0 -12 6
-8 13 5 8 2 9 -9 5 -10 -3 -17 -2 -17 4 0 6 -4 7 -10 4 -5 -3 -10 2 -11 12 0
12 -2 13 -6 5 -4 -10 -9 -8 -20 7 -8 12 -23 21 -34 21 -10 0 -19 5 -19 11 0 5
-5 7 -12 3 -8 -5 -9 -2 -4 11 5 15 4 16 -9 5 -14 -12 -19 -7 -16 13 1 5 -3 6
-9 2 -5 -3 -10 0 -10 7 0 10 -3 9 -10 -2 -8 -12 -10 -12 -15 2 -4 9 -13 19
-21 22 -9 4 -12 2 -8 -5 3 -6 -3 -5 -14 2 -12 7 -20 17 -19 23 1 5 -20 16 -48
25 -27 8 -53 20 -56 25 -4 5 -14 6 -23 3 -8 -3 -18 -1 -22 5 -5 7 -2 8 6 3 9
-5 11 -4 6 3 -4 7 -18 12 -32 12 -17 0 -23 4 -18 13 4 6 4 9 -1 5 -4 -4 -15
-2 -23 5 -13 10 -14 9 -7 -2 6 -11 5 -12 -6 -5 -15 9 -20 11 -45 13 -9 1 -12
6 -8 14 4 6 4 9 -1 5 -4 -4 -14 -3 -21 3 -8 7 -14 7 -19 -1 -5 -8 -14 -6 -28
7 -11 10 -17 12 -13 6 13 -22 -11 -14 -28 10 -9 12 -14 16 -11 10 3 -7 1 -13
-4 -13 -6 0 -11 4 -11 9 0 5 -8 8 -17 6 -10 -1 -26 1 -35 6 -11 6 -18 5 -21
-4 -4 -9 -6 -9 -6 1 -1 7 -5 10 -11 7 -5 -3 -10 0 -10 7 0 9 -3 9 -10 -2 -7
-12 -10 -12 -10 -1 0 7 -6 11 -15 7 -8 -3 -15 0 -15 6 0 7 -4 7 -14 -1 -11 -9
-17 -8 -29 4 -10 10 -17 11 -19 4 -3 -8 -8 -7 -18 2 -15 14 -30 17 -102 23
-21 1 -41 6 -44 9 -4 3 -15 2 -24 -3 -13 -7 -21 -5 -30 5 -7 8 -16 13 -20 10
-5 -3 -11 -1 -15 4 -3 6 -15 7 -28 2 -16 -6 -25 -4 -34 8 -9 12 -12 13 -13 2
0 -10 -4 -11 -12 -3 -7 6 -39 10 -70 9 -32 -1 -58 1 -58 5 0 4 -9 4 -21 0 -26
-10 -91 -3 -83 9 3 5 -3 6 -12 2 -12 -5 -15 -3 -9 6 6 10 3 11 -13 2 -13 -7
-23 -7 -27 -1 -3 5 -11 7 -18 5 -28 -11 -77 -11 -80 -1 -3 8 -8 8 -18 1 -8 -6
-21 -10 -29 -9 -29 3 -60 16 -55 23 2 4 -2 8 -10 8 -8 0 -13 -5 -12 -10z
m-936 -332 c0 -8 -4 -12 -9 -9 -5 3 -6 10 -3 15 9 13 12 11 12 -6z m2608 -85
c3 -6 -1 -7 -9 -4 -18 7 -21 14 -7 14 6 0 13 -4 16 -10z m-2835 -30 c0 -5 -5
-10 -11 -10 -5 0 -7 5 -4 10 3 6 8 10 11 10 2 0 4 -4 4 -10z m-106 -95 c-4 -8
-11 -15 -16 -15 -6 0 -5 6 2 15 7 8 14 15 16 15 2 0 1 -7 -2 -15z m556 -897
c0 -5 5 -6 10 -3 6 3 10 0 10 -7 0 -9 3 -9 10 2 8 13 10 12 10 -3 0 -10 5 -15
10 -12 6 3 10 2 10 -4 0 -5 11 -8 25 -7 14 2 22 -1 18 -7 -4 -6 2 -8 15 -5 13
4 20 1 19 -5 -1 -6 3 -11 8 -12 6 0 15 -3 21 -7 6 -4 21 -6 33 -3 11 2 21 -1
21 -7 0 -6 9 -8 20 -5 11 3 20 0 20 -6 0 -7 5 -5 10 3 8 13 10 12 10 -4 0 -15
3 -16 14 -7 9 7 17 8 20 2 3 -5 14 -8 24 -6 9 1 22 -2 28 -7 14 -10 6 -51 -7
-42 -5 3 -6 -2 -3 -10 3 -9 1 -16 -5 -16 -6 0 -11 -5 -11 -11 0 -5 5 -7 12 -3
7 4 8 3 4 -4 -4 -7 -15 -12 -24 -12 -15 0 -15 -2 -2 -10 13 -8 12 -10 -4 -10
-14 0 -16 -3 -8 -13 7 -8 6 -18 -4 -31 -10 -15 -11 -23 -2 -33 9 -11 8 -13 -3
-11 -12 2 -14 -22 -14 -139 0 -79 -4 -143 -8 -143 -4 0 -3 -8 2 -18 7 -13 7
-22 0 -29 -8 -8 -7 -13 2 -18 8 -6 10 -4 4 5 -5 9 -4 11 4 6 6 -4 8 -12 5 -18
-4 -6 0 -14 7 -19 11 -7 11 -9 1 -9 -10 0 -10 -5 -2 -20 8 -14 8 -20 0 -20 -8
0 -8 -6 0 -20 8 -15 8 -20 -2 -21 -7 0 -4 -4 7 -9 11 -5 15 -9 8 -9 -8 -1 -8
-7 0 -26 7 -14 15 -25 20 -25 4 0 7 -5 7 -11 0 -5 -5 -7 -11 -3 -8 4 -8 0 0
-15 7 -12 9 -26 6 -31 -3 -6 -1 -10 4 -10 6 0 11 -11 11 -25 0 -13 6 -30 14
-37 11 -11 11 -15 -3 -25 -14 -12 -14 -12 3 -6 13 4 17 3 13 -4 -4 -6 0 -19 9
-27 11 -12 12 -16 2 -16 -8 0 -6 -5 5 -11 9 -6 15 -14 12 -19 -3 -5 0 -20 7
-35 16 -35 -7 -53 -35 -28 -13 13 -15 18 -5 25 10 6 10 8 -1 8 -8 0 -11 7 -8
20 3 10 2 20 -2 22 -3 2 -14 18 -24 36 -14 24 -15 32 -5 32 9 1 7 5 -4 14 -10
7 -18 21 -18 30 0 9 -3 16 -8 16 -10 0 -34 79 -27 91 4 5 -1 9 -9 9 -9 0 -16
9 -16 20 0 11 -4 20 -10 20 -5 0 -10 5 -10 11 0 5 6 7 13 3 7 -4 9 -3 4 2 -5
5 -13 10 -18 10 -22 3 -23 6 -4 14 19 8 19 9 1 9 -16 1 -16 3 -6 17 11 12 11
15 -1 12 -8 -2 -13 3 -11 10 1 6 -3 12 -9 12 -6 0 -9 9 -6 19 3 12 -1 22 -10
25 -8 3 -11 10 -8 16 3 5 -2 11 -12 11 -17 1 -17 2 0 6 18 5 24 22 7 24 -5 1
-14 2 -19 3 -5 0 -13 5 -18 10 -4 5 -3 6 4 2 9 -5 12 2 10 23 -2 24 -5 27 -16
18 -11 -10 -13 -8 -6 12 4 15 3 21 -3 17 -6 -3 -9 6 -8 24 1 17 -3 30 -9 30
-7 0 -17 12 -24 27 -11 24 -11 25 5 12 9 -7 5 4 -10 25 -14 21 -23 43 -19 49
4 7 0 8 -12 3 -14 -5 -15 -4 -7 7 8 10 6 16 -10 26 -15 9 -17 16 -10 23 8 8 6
15 -6 25 -9 8 -11 12 -4 8 6 -3 12 -1 12 4 0 6 -4 11 -10 11 -5 0 -6 7 -3 17
5 12 3 14 -7 8 -10 -6 -12 -3 -8 13 4 12 3 20 -2 17 -4 -3 -11 2 -14 11 -3 8
-2 12 4 9 6 -3 10 -4 10 0 0 3 -10 10 -22 15 -21 8 -21 9 -3 10 19 1 19 1 2
14 -10 8 -18 17 -18 20 3 26 -1 36 -11 30 -6 -4 -8 -3 -4 4 3 6 3 13 -2 16 -6
4 -9 61 -3 73 3 7 61 -2 61 -9z m1730 -1374 c0 -8 -19 -13 -24 -6 -3 5 1 9 9
9 8 0 15 -2 15 -3z m-1420 -118 c0 -2 -8 -10 -17 -17 -16 -13 -17 -12 -4 4 13
16 21 21 21 13z m-1006 -518 c-3 -4 2 -5 10 -2 9 3 16 1 16 -5 0 -6 -4 -11
-10 -11 -5 0 -10 -5 -10 -11 0 -5 6 -7 13 -3 6 4 1 -4 -12 -17 -29 -28 -66
-37 -57 -14 3 8 2 15 -2 15 -9 0 -8 53 1 67 5 8 14 8 31 0 13 -7 22 -15 20
-19z m736 -581 c17 -14 20 -39 5 -49 -19 -14 -72 -9 -72 7 0 8 4 15 9 15 4 0
8 9 8 20 0 23 26 26 50 7z m-760 -107 c0 -5 -2 -10 -4 -10 -3 0 -8 5 -11 10
-3 6 -1 10 4 10 6 0 11 -4 11 -10z"/>
<path d="M1630 2281 c0 -6 4 -13 10 -16 6 -3 7 1 4 9 -7 18 -14 21 -14 7z"/>
<path d="M1007 1653 c-4 -3 -7 -11 -7 -17 0 -6 5 -5 12 2 6 6 9 14 7 17 -3 3
-9 2 -12 -2z"/>
<path d="M699 1513 c-13 -16 -12 -17 4 -4 9 7 17 15 17 17 0 8 -8 3 -21 -13z"/>
<path d="M1390 1180 c-9 -6 -10 -10 -3 -10 6 0 15 5 18 10 8 12 4 12 -15 0z"/>
<path d="M663 565 c0 -8 4 -12 9 -9 5 3 6 10 3 15 -9 13 -12 11 -12 -6z"/>
</g>
</svg>
